<?xml version="1.0" standalone="no"?>
<!DOCTYPE svg PUBLIC "-//W3C//DTD SVG 20010904//EN"
 "http://www.w3.org/TR/2001/REC-SVG-20010904/DTD/svg10.dtd">
<svg version="1.0" xmlns="http://www.w3.org/2000/svg"
 width="512.000000pt" height="512.000000pt" viewBox="0 0 512.000000 512.000000"
 preserveAspectRatio="xMidYMid meet">
<metadata>
Created by potrace 1.14, written by Peter Selinger 2001-2017
</metadata>
<g transform="translate(0.000000,512.000000) scale(0.100000,-0.100000)"
fill="#000000" stroke="none">
<path d="M1055 3636 c-348 -67 -590 -337 -660 -737 -21 -116 -21 -559 0 -684
61 -374 278 -641 592 -727 111 -30 351 -30 468 1 215 56 380 184 468 362 47
96 87 227 87 286 l0 34 -137 -3 -136 -3 -22 -85 c-40 -160 -91 -245 -183 -307
-83 -55 -164 -75 -307 -77 -101 -1 -130 3 -187 22 -191 66 -320 250 -363 517
-18 108 -20 494 -4 612 46 345 235 552 519 570 228 15 393 -69 474 -240 32
-67 66 -181 66 -220 0 -15 16 -17 143 -17 l144 0 -9 58 c-12 84 -45 187 -86
272 -54 112 -187 243 -302 298 -47 23 -114 48 -150 57 -89 22 -325 28 -415 11z"/>
<path d="M2253 3578 c6 -24 122 -502 257 -1063 l246 -1020 130 -3 129 -2 223
763 c123 419 233 803 244 852 l21 90 31 -125 c17 -69 123 -452 236 -853 l205
-727 129 2 130 3 251 1035 c138 569 254 1047 258 1063 l8 28 -143 -3 -142 -3
-167 -734 c-91 -404 -175 -789 -184 -857 -10 -68 -21 -124 -24 -124 -3 0 -18
55 -33 123 -16 67 -119 453 -231 857 l-204 735 -121 3 c-67 1 -122 0 -122 -3
0 -3 -95 -340 -211 -748 -116 -408 -222 -793 -236 -854 -15 -62 -29 -111 -31
-108 -3 3 -13 60 -23 128 -10 67 -93 452 -186 854 l-168 733 -141 0 -142 0 11
-42z"/>
</g>
</svg>
